<svg width="24" height="24" viewBox="0 0 24 24" fill="none" xmlns="http://www.w3.org/2000/svg">
<path d="M10.134 10.536L11.745 9.06C12.1855 8.65563 12.4951 8.12885 12.6341 7.54727C12.7731 6.96569 12.7351 6.35584 12.525 5.796L11.838 3.9615C11.5813 3.27663 11.0732 2.71538 10.4172 2.39208C9.76109 2.06879 9.00646 2.00779 8.30699 2.2215C5.73299 3.009 3.75449 5.4015 4.36349 8.2425C4.76399 10.1115 5.53049 12.4575 6.98249 14.9535C8.43749 17.4555 10.0995 19.3035 11.5245 20.6025C13.6755 22.56 16.7505 22.071 18.729 20.226C19.2593 19.7315 19.5812 19.0534 19.6288 18.3298C19.6765 17.6063 19.4464 16.8918 18.9855 16.332L17.7255 14.802C17.3455 14.3393 16.8357 14.0009 16.2618 13.8304C15.6878 13.6598 15.076 13.6649 14.505 13.845L12.423 14.5005C11.8853 13.9456 11.4141 13.33 11.019 12.666C10.6376 11.9945 10.3404 11.2786 10.134 10.5345V10.536Z" fill="#0AC67D"/>
</svg>
