<svg width="1664" height="1536" viewBox="0 0 1664 1536" fill="none" xmlns="http://www.w3.org/2000/svg">
<g clip-path="url(#clip0_1056_2796)">
<path d="M1280 1344C1280 1326.67 1273.67 1311.67 1261 1299C1248.33 1286.33 1233.33 1280 1216 1280C1198.67 1280 1183.67 1286.33 1171 1299C1158.33 1311.67 1152 1326.67 1152 1344C1152 1361.33 1158.33 1376.33 1171 1389C1183.67 1401.67 1198.67 1408 1216 1408C1233.33 1408 1248.33 1401.67 1261 1389C1273.67 1376.33 1280 1361.33 1280 1344ZM1536 1344C1536 1326.67 1529.67 1311.67 1517 1299C1504.33 1286.33 1489.33 1280 1472 1280C1454.67 1280 1439.67 1286.33 1427 1299C1414.33 1311.67 1408 1326.67 1408 1344C1408 1361.33 1414.33 1376.33 1427 1389C1439.67 1401.67 1454.67 1408 1472 1408C1489.33 1408 1504.33 1401.67 1517 1389C1529.67 1376.33 1536 1361.33 1536 1344ZM1664 1120V1440C1664 1466.67 1654.67 1489.33 1636 1508C1617.33 1526.67 1594.67 1536 1568 1536H96C69.3333 1536 46.6667 1526.67 28 1508C9.33333 1489.33 0 1466.67 0 1440V1120C0 1093.33 9.33333 1070.67 28 1052C46.6667 1033.33 69.3333 1024 96 1024H561L696 1160C734.667 1197.33 780 1216 832 1216C884 1216 929.333 1197.33 968 1160L1104 1024H1568C1594.67 1024 1617.33 1033.33 1636 1052C1654.67 1070.67 1664 1093.33 1664 1120ZM1339 551C1350.33 578.333 1345.67 601.667 1325 621L877 1069C865 1081.67 850 1088 832 1088C814 1088 799 1081.67 787 1069L339 621C318.333 601.667 313.667 578.333 325 551C336.333 525 356 512 384 512H640V64C640 46.6667 646.333 31.6667 659 19C671.667 6.33333 686.667 0 704 0H960C977.333 0 992.333 6.33333 1005 19C1017.67 31.6667 1024 46.6667 1024 64V512H1280C1308 512 1327.67 525 1339 551Z" fill="white"/>
</g>
<defs>
<clipPath id="clip0_1056_2796">
<rect width="1664" height="1536" fill="white"/>
</clipPath>
</defs>
</svg>
